@startuml
title Radar 

class Redux << (P,yellow) Provider >> {
  ~store
}

class RadarContainer << (C, red) container >> {
  ~store
  ==state==
  ==props==
}

class ControlContainer << (C, red) container >> {
  ~store
  ==methods==
  +handleEvents()
}

class SweepContainer << (C, red) container >> {
  ~store
  ==props==
  # radius : number
  # hubRadius : number
}

class Bezel << (C,blue) component >> {
  ==props==
  # radius : number
}

class Display << (C, blue) component >> {
  ==state==
  ==props==
  # svgHeight: number
  # svgWidth : number
  # diameter : number
  # radius : number
  # hubRadius : number
}

class Hub << (C,blue) component >> {
    ==props==
    # radius:number
}

class Sweep << (C,blue) component >> {
    ==props==
    #dim:object
}

class RadarControls << (C,blue) component >> {
    ==props==
    # controls:array
    # controlHandler()
    ==methods==
    + handleToggleEvents()
}

class Toggle << (C,blue) component >> {
    ==state==
    # value
    ==props==
    # id: number
    # label: string
    # onClick()
}

class "StartStop:Toggle" << (C,lightblue) instance >>
Redux <...> RadarContainer
Redux <...> ControlContainer
Redux <...> SweepContainer

RadarContainer *-- SweepContainer
RadarContainer *-- ControlContainer

RadarContainer o-- Display

Display o-- Bezel
Display o-- Hub

SweepContainer o-- Sweep

ControlContainer o-- RadarControls
ControlContainer "handleEvents" <.. "controlHandler" RadarControls
RadarControls o-- Toggle
RadarControls "handleToggleEvents" <.. "onClick" Toggle

Toggle <|-- "StartStop:Toggle"
@enduml
